<svg xmlns="http://www.w3.org/2000/svg" width="30" height="30" viewBox="0 0 30 30">
  <path id="home-run" d="M29.694,13.048l0,0L17.453.808a2.762,2.762,0,0,0-3.906,0L1.314,13.039l-.012.013A2.761,2.761,0,0,0,3.14,17.757c.028,0,.057,0,.085,0h.488v9.006A3.236,3.236,0,0,0,6.946,30h4.788a.879.879,0,0,0,.879-.879V22.06a1.477,1.477,0,0,1,1.475-1.475h2.824a1.476,1.476,0,0,1,1.475,1.475V29.12a.879.879,0,0,0,.879.879h4.788a3.236,3.236,0,0,0,3.233-3.232V17.761h.452a2.762,2.762,0,0,0,1.955-4.714Zm-1.245,2.661a1,1,0,0,1-.71.294H26.408a.879.879,0,0,0-.879.879v9.884a1.476,1.476,0,0,1-1.475,1.474H20.145V22.06a3.236,3.236,0,0,0-3.233-3.233H14.088a3.237,3.237,0,0,0-3.233,3.233v6.182H6.946a1.476,1.476,0,0,1-1.475-1.474V16.883A.879.879,0,0,0,4.592,16H3.283l-.041,0a1,1,0,0,1-.692-1.713h0L14.79,2.051a1,1,0,0,1,1.42,0L28.446,14.285l.006.005a1.006,1.006,0,0,1,0,1.418Zm0,0" transform="translate(-0.5 0.001)" fill="#fff"/>
</svg>
